<svg xmlns="http://www.w3.org/2000/svg" xmlns:xlink="http://www.w3.org/1999/xlink" width="500" zoomAndPan="magnify" viewBox="0 0 375 374.999991" height="500" preserveAspectRatio="xMidYMid meet" version="1.2"><defs><clipPath id="5c579bc271"><path d="M 177 144 L 239 144 L 239 257.625 L 177 257.625 Z M 177 144 "/></clipPath><clipPath id="9e449bb969"><path d="M 177 117.375 L 262.5 117.375 L 262.5 221 L 177 221 Z M 177 117.375 "/></clipPath><clipPath id="2bdc35b337"><path d="M 112.5 156 L 174 156 L 174 221 L 112.5 221 Z M 112.5 156 "/></clipPath></defs><g id="00dec1400d"><rect x="0" width="375" y="0" height="374.999991" style="fill:#ffffff;fill-opacity:1;stroke:none;"/><rect x="0" width="375" y="0" height="374.999991" style="fill:#45a049;fill-opacity:1;stroke:none;"/><g clip-rule="nonzero" clip-path="url(#5c579bc271)"><path style=" stroke:none;fill-rule:nonzero;fill:#ffffff;fill-opacity:1;" d="M 180.265625 257.554688 C 178.9375 257.554688 177.855469 256.472656 177.855469 255.144531 C 177.855469 215.730469 180.472656 191.164062 234.160156 144.796875 C 235.15625 143.929688 236.683594 144.035156 237.558594 145.050781 C 238.425781 146.058594 238.3125 147.574219 237.304688 148.453125 C 185.210938 193.441406 182.675781 217.132812 182.675781 255.144531 C 182.675781 256.472656 181.59375 257.554688 180.265625 257.554688 "/></g><g clip-rule="nonzero" clip-path="url(#9e449bb969)"><path style=" stroke:none;fill-rule:nonzero;fill:#ffffff;fill-opacity:1;" d="M 183.203125 220.921875 C 182.734375 220.921875 182.261719 220.789062 181.839844 220.496094 C 180.746094 219.742188 180.464844 218.246094 181.214844 217.144531 C 187.40625 208.15625 195.894531 206.101562 204.878906 203.925781 C 216.25 201.167969 229.128906 198.046875 243.539062 181.222656 C 252.539062 170.738281 253.695312 154.707031 254.714844 140.558594 C 255.128906 134.828125 255.523438 129.335938 256.398438 124.429688 C 252.707031 125.84375 247.875 127.160156 242.257812 128.6875 C 223.382812 133.820312 197.53125 140.859375 187.226562 159.019531 C 182.160156 167.949219 181.40625 178.972656 185.003906 191.792969 C 185.363281 193.074219 184.609375 194.414062 183.328125 194.769531 C 182.066406 195.128906 180.71875 194.375 180.351562 193.09375 C 176.414062 178.992188 177.308594 166.734375 183.035156 156.648438 C 194.328125 136.734375 221.300781 129.394531 240.996094 124.035156 C 248.789062 121.914062 255.523438 120.078125 258.507812 118.089844 C 259.347656 117.523438 260.449219 117.554688 261.269531 118.144531 C 262.078125 118.75 262.445312 119.785156 262.164062 120.757812 C 260.582031 126.304688 260.074219 133.398438 259.527344 140.90625 C 258.453125 155.800781 257.238281 172.671875 247.207031 184.371094 C 231.773438 202.371094 217.492188 205.828125 206.019531 208.609375 C 197.25 210.738281 190.324219 212.414062 185.191406 219.886719 C 184.722656 220.5625 183.96875 220.921875 183.203125 220.921875 "/></g><path style=" stroke:none;fill-rule:nonzero;fill:#ffffff;fill-opacity:1;" d="M 180.753906 238.414062 C 179.824219 238.414062 178.945312 237.878906 178.542969 236.972656 C 176.140625 231.566406 172.699219 225.414062 168.601562 219.1875 C 158.851562 204.332031 146.53125 190.523438 137.929688 184.804688 C 136.828125 184.070312 136.527344 182.570312 137.261719 181.460938 C 137.996094 180.347656 139.496094 180.046875 140.605469 180.789062 C 149.828125 186.921875 162.40625 200.960938 172.636719 216.539062 C 176.875 222.976562 180.445312 229.371094 182.949219 235.011719 C 183.496094 236.230469 182.941406 237.660156 181.726562 238.199219 C 181.40625 238.339844 181.074219 238.414062 180.753906 238.414062 "/><g clip-rule="nonzero" clip-path="url(#2bdc35b337)"><path style=" stroke:none;fill-rule:nonzero;fill:#ffffff;fill-opacity:1;" d="M 170.617188 220.269531 C 169.289062 220.269531 168.207031 219.195312 168.207031 217.859375 C 168.179688 191.707031 167.511719 183.785156 152.542969 175.242188 C 143.867188 170.289062 139.851562 169.296875 134.773438 168.035156 C 131.007812 167.09375 126.476562 165.972656 119.15625 163.003906 C 120.003906 166.09375 120.683594 169.496094 121.390625 173.027344 C 125.070312 191.492188 129.246094 212.414062 158.703125 214.15625 C 160.03125 214.234375 161.046875 215.371094 160.964844 216.699219 C 160.886719 218.027344 159.730469 219.046875 158.417969 218.960938 C 125.242188 217.019531 120.277344 192.132812 116.660156 173.96875 C 115.566406 168.527344 114.550781 163.382812 112.9375 159.632812 C 112.542969 158.71875 112.75 157.664062 113.457031 156.96875 C 114.164062 156.269531 115.226562 156.070312 116.132812 156.476562 C 126.117188 160.914062 131.335938 162.214844 135.933594 163.355469 C 141.160156 164.644531 145.683594 165.773438 154.933594 171.058594 C 172.125 180.867188 173.003906 190.738281 173.03125 217.859375 C 173.03125 219.1875 171.945312 220.269531 170.617188 220.269531 "/></g></g></svg>